<?xml version="1.0" encoding="UTF-8"?>
<svg id="Camada_2" data-name="Camada 2" xmlns="http://www.w3.org/2000/svg" viewBox="0 0 257.36 367.49">
  <defs>
    <style>
      .cls-1, .cls-2, .cls-3, .cls-4 {
        stroke: #3c3c3b;
      }

      .cls-1, .cls-2, .cls-3, .cls-4, .cls-5 {
        fill: none;
      }

      .cls-1, .cls-3 {
        stroke-width: 1.5px;
      }

      .cls-1, .cls-5 {
        stroke-miterlimit: 10;
      }

      .cls-6 {
        fill: #6ac5df;
      }

      .cls-6, .cls-7, .cls-8 {
        stroke-width: 0px;
      }

      .cls-7, .cls-9, .cls-10 {
        fill: #3c3c3b;
      }

      .cls-11, .cls-12, .cls-13, .cls-9, .cls-10 {
        isolation: isolate;
      }

      .cls-11, .cls-13 {
        fill: #36a9c2;
      }

      .cls-11, .cls-13, .cls-9 {
        font-family: ArialMT, Arial;
        font-size: 8.72px;
      }

      .cls-13 {
        letter-spacing: -.03em;
      }

      .cls-2 {
        stroke-width: 1.5px;
      }

      .cls-2, .cls-3, .cls-4 {
        stroke-linejoin: round;
      }

      .cls-10 {
        font-family: Poppins-Light, Poppins;
        font-size: 12px;
        font-weight: 300;
      }

      .cls-4 {
        stroke-width: 1.35px;
      }

      .cls-8 {
        fill: #fff;
      }

      .cls-5 {
        stroke: #6ac5df;
      }
    </style>
  </defs>
  <g id="Camada_1-2" data-name="Camada 1">
    <g>
      <path class="cls-8" d="M0,0v367.49h257.36V0H0ZM243.47,276.13H13.88V46.55h229.59v229.59h0Z"/>
      <circle class="cls-2" cx="31.25" cy="25.08" r="11.28"/>
      <g class="cls-12">
        <text class="cls-9" transform="translate(37.18 322.17)"><tspan x="0" y="0">362 likes</tspan></text>
      </g>
      <g class="cls-12">
        <text class="cls-9" transform="translate(24.12 339.67)"><tspan x="0" y="0">ani</tspan></text>
        <text class="cls-9" transform="translate(35.2 339.67)"><tspan x="0" y="0">v</tspan></text>
        <text class="cls-9" transform="translate(39.31 339.67)"><tspan x="0" y="0">ersá</tspan></text>
        <text class="cls-9" transform="translate(54.19 339.67)"><tspan x="0" y="0">r</tspan></text>
        <text class="cls-9" transform="translate(57.08 339.67)"><tspan x="0" y="0">io</tspan></text>
      </g>
      <g class="cls-12">
        <text class="cls-11" transform="translate(91.62 339.67)"><tspan x="0" y="0">#15anos</tspan></text>
      </g>
      <g class="cls-12">
        <text class="cls-11" transform="translate(138.35 339.67)"><tspan x="0" y="0">#</tspan></text>
        <text class="cls-11" transform="translate(142.68 339.67)"><tspan x="0" y="0">M</tspan></text>
        <text class="cls-11" transform="translate(149.75 339.67)"><tspan x="0" y="0">a</tspan></text>
        <text class="cls-13" transform="translate(153.95 339.67)"><tspan x="0" y="0">F</tspan></text>
        <text class="cls-11" transform="translate(157.93 339.67)"><tspan x="0" y="0">er</tspan></text>
      </g>
      <g>
        <path class="cls-7" d="M232.19,24.55c0,.66-.54,1.2-1.2,1.2s-1.2-.54-1.2-1.2.54-1.2,1.2-1.2,1.2.54,1.2,1.2Z"/>
        <path class="cls-7" d="M235.82,24.55c0,.66-.54,1.2-1.2,1.2s-1.2-.54-1.2-1.2.54-1.2,1.2-1.2,1.2.54,1.2,1.2Z"/>
        <path class="cls-7" d="M239.46,24.55c0,.66-.54,1.2-1.2,1.2s-1.2-.54-1.2-1.2.54-1.2,1.2-1.2,1.2.54,1.2,1.2Z"/>
      </g>
      <path class="cls-3" d="M28.74,302.73l6.59-5.33c.73-.59,1.31-1.37,1.6-2.3,1.21-3.8-2.23-7.86-6.31-6.26-1.1.43-1.89,1.87-1.89,1.87,0,0-.79-1.44-1.89-1.87-4.07-1.59-7.52,2.47-6.31,6.26.29.92.88,1.71,1.6,2.3l6.59,5.33h.02Z"/>
      <path class="cls-7" d="M28.74,323.37l4-3.24c.44-.36.8-.83.97-1.4.73-2.3-1.36-4.77-3.83-3.8-.67.26-1.15,1.14-1.15,1.14,0,0-.48-.88-1.15-1.14-2.47-.97-4.56,1.5-3.83,3.8.18.56.53,1.04.97,1.4l4,3.24h.02Z"/>
      <path class="cls-1" d="M65.49,298.22c.75-1.49,1.03-3.26.6-5.12-.66-2.81-2.98-5.04-5.82-5.57-5.22-.98-9.71,3.49-8.78,8.71.53,2.94,2.87,5.32,5.79,5.92,1.57.32,3.07.14,4.38-.4.32-.13.67-.17,1-.06l2.22.68c.51.16,1.01-.29.91-.81l-.45-2.4c-.06-.32,0-.65.15-.94h0Z"/>
      <path class="cls-3" d="M236.38,300.77l-4.76-4.08-4.76,4.08c-.34.29-.86.05-.86-.4v-11.42c0-.47.38-.85.85-.85h9.53c.47,0,.85.38.85.85v11.42c0,.44-.52.68-.86.4h0Z"/>
      <g>
        <polygon class="cls-4" points="80.51 288.22 98.1 288.22 86.86 303.23 86.85 293.65 80.51 288.22"/>
        <line class="cls-4" x1="86.85" y1="293.65" x2="98.1" y2="288.22"/>
      </g>
      <g class="cls-12">
        <text class="cls-10" transform="translate(52.13 31.3)"><tspan x="0" y="0">ie.mafer</tspan></text>
      </g>
      <g>
        <g>
          <path class="cls-6" d="M173.73,23.94v1.45h2.63v.68h-2.63v2.16h-.74v-4.97h3.65v.68h-2.92Z"/>
          <path class="cls-6" d="M177.81,25.75c0-1.4,1.19-2.57,2.58-2.57s2.57,1.17,2.57,2.57-1.17,2.58-2.57,2.58-2.58-1.18-2.58-2.58ZM182.21,25.75c0-1.03-.83-1.9-1.82-1.9s-1.83.87-1.83,1.9.84,1.9,1.83,1.9,1.82-.87,1.82-1.9Z"/>
          <path class="cls-6" d="M187.71,27.56v.68h-3.37v-4.97h.74v4.29h2.63Z"/>
          <path class="cls-6" d="M192.33,27.56v.68h-3.37v-4.97h.74v4.29h2.63Z"/>
          <path class="cls-6" d="M193.44,25.75c0-1.4,1.19-2.57,2.58-2.57s2.57,1.17,2.57,2.57-1.17,2.58-2.57,2.58-2.58-1.18-2.58-2.58ZM197.85,25.75c0-1.03-.83-1.9-1.82-1.9s-1.83.87-1.83,1.9.84,1.9,1.83,1.9,1.82-.87,1.82-1.9Z"/>
          <path class="cls-6" d="M199.55,23.26h.81l1.22,3.79,1.25-3.79h.81l1.24,3.79,1.22-3.79h.81l-1.64,4.97h-.73l-1.31-3.96-1.32,3.96h-.73l-1.63-4.97Z"/>
        </g>
        <path class="cls-5" d="M163.63,18.43h52.64c1.79,0,3.24,1.45,3.24,3.24v8.16c0,1.79-1.45,3.24-3.24,3.24h-52.64c-1.79,0-3.24-1.45-3.24-3.24v-8.16c0-1.79,1.45-3.24,3.24-3.24Z"/>
      </g>
    </g>
  </g>
</svg>