<?xml version="1.0" encoding="UTF-8"?>
<svg id="Camada_2" data-name="Camada 2" xmlns="http://www.w3.org/2000/svg" xmlns:xlink="http://www.w3.org/1999/xlink" viewBox="0 0 549.2 773.02">
  <defs>
    <style>
      .cls-1, .cls-2, .cls-3 {
        fill: #ec91bc;
      }

      .cls-1, .cls-4 {
        stroke: #ec91bc;
      }

      .cls-5 {
        stroke: #dd78b4;
      }

      .cls-5, .cls-6 {
        fill: #dd78b4;
      }

      .cls-7, .cls-8 {
        stroke: #a3619f;
      }

      .cls-7, .cls-9 {
        fill: #a75fa1;
      }

      .cls-10 {
        fill: #d89dcb;
      }

      .cls-10, .cls-11 {
        stroke: #d898c8;
      }

      .cls-12, .cls-13 {
        fill: #f2a4cb;
      }

      .cls-12, .cls-14 {
        stroke: #efa3c9;
      }

      .cls-15 {
        stroke: #d586d0;
      }

      .cls-15, .cls-16, .cls-17, .cls-18, .cls-19, .cls-14, .cls-20, .cls-8, .cls-4, .cls-21 {
        fill: none;
      }

      .cls-6, .cls-22, .cls-13, .cls-17, .cls-23, .cls-24, .cls-25, .cls-26, .cls-27, .cls-28, .cls-29, .cls-30, .cls-31, .cls-3, .cls-9, .cls-32 {
        stroke-width: 0px;
      }

      .cls-33, .cls-30 {
        fill: #d097c2;
      }

      .cls-33, .cls-21 {
        stroke: #d097c2;
      }

      .cls-34, .cls-20 {
        stroke: #a65f9e;
      }

      .cls-34, .cls-28 {
        fill: #a65f9e;
      }

      .cls-22 {
        fill: #d586d0;
      }

      .cls-16 {
        stroke: #dea0d3;
      }

      .cls-35 {
        stroke: #ac5d9f;
      }

      .cls-35, .cls-31 {
        fill: #ac62ad;
      }

      .cls-18 {
        stroke: #ec8db9;
      }

      .cls-23 {
        fill: #ec8db9;
      }

      .cls-24 {
        fill: #dea0d3;
      }

      .cls-25, .cls-36 {
        fill: #a65fa1;
      }

      .cls-26 {
        fill: #a3619f;
      }

      .cls-37 {
        fill: #d097c4;
        stroke: #d097c4;
      }

      .cls-38 {
        fill: #ee91bd;
        stroke: #ee91bd;
      }

      .cls-19 {
        stroke: #ab5fa9;
      }

      .cls-27 {
        fill: #ee75b7;
      }

      .cls-29 {
        fill: #ab5fa9;
      }

      .cls-2 {
        stroke: #f98fbf;
      }

      .cls-36 {
        stroke: #a65fa1;
      }

      .cls-11 {
        fill: #d794c2;
      }

      .cls-32 {
        fill: #fff8ff;
      }
    </style>
  </defs>
  <g id="Camada_1-2" data-name="Camada 1">
    <rect class="cls-32" x="498.2" y="1.09" width="51" height="765.91"/>
    <rect class="cls-32" x="3.2" width="546" height="35.96"/>
    <rect class="cls-32" x="3.2" y="1.09" width="51" height="765.91"/>
    <rect class="cls-32" x="3.2" y="609.5" width="546" height="160"/>
    <g>
      <path class="cls-24" d="M19.22,545.61c5-1.29,7.44-.08,9.21,5.04,9.07,1.04,12.1,1.78,12.2,5.04-3.39-.09-5.3.02-8.75.72-.49-2.52-1-3.86-3.45-5.76-2.6.09-3.89.8-5.99,2.88-.24-3.28-.9-5.02-3.22-7.92Z"/>
      <path class="cls-16" d="M28.43,550.65c-1.77-5.12-4.21-6.33-9.21-5.04,2.32,2.9,2.98,4.64,3.22,7.92,2.1-2.08,3.38-2.79,5.99-2.88ZM28.43,550.65c9.07,1.04,12.1,1.78,12.2,5.04-3.39-.09-5.3.02-8.75.72-.49-2.52-1-3.86-3.45-5.76Z"/>
      <path class="cls-7" d="M29.58,549.51c-.55-.61-2.27.43-6.45,3.36-1.13-2.58-2.16-4.74-3.19-6.48-3.44-5.83-6.72-6.8-12.7-2.16,2.73,1.29,3.53,3.11,2.3,10.32-2.49,13.1-2.73,19.52,4.37,24.96,9.16,3.61,14.7.66,25.1-12.24,4.72-4.24,6.81-4.87,9.67-3.36-1.33-8.09-4.82-9.76-16.12-7.44-1.08-4.62-1.84-6.96-2.99-6.96Z"/>
      <path class="cls-28" d="M215.56,724.43c-6.01-4.04-9.71-4.51-16.99-2.71,11.38-1.07,18.05,6.63,23.14,16.86,12.19,16.58,24.57,16.73,39.58,13.93,16.34-5.54,24.3-4.53,35,9.01-5.84-11.65-11.42-15.65-26.39-15.21-.98.43-10.2,3.38-16.99,4.33-14.97.52-19.92-4.77-25.63-10.92-3.38-6.71-5.74-10.46-11.72-15.29Z"/>
      <path class="cls-28" d="M236.51,767.98c-1.09-6.29.13-12.75,5.36-11.58,5.23,1.17,4.12,7.32-3.25,15.73l-2.11-4.15Z"/>
      <path class="cls-28" d="M221.1,753.39c.39-5.27.76-6.82,1.59-8.2,5.54,4.99,5.95,8.11,1.05,14.31l-2.64-6.11Z"/>
      <path class="cls-28" d="M233.56,741.12c4.29-6.74,6.92-9.52,12.13-12.24,1.39,5.09.46,7.57-3.67,11.42-3.67.91-5.61,1.23-8.45.82Z"/>
      <path class="cls-28" d="M223.61,715.94c-2.94.93-4.26,2.16-6.34,4.97,6.82,2.82,9.92,2.52,13.3-3.63-1.87-1.01-3.18-1.42-6.96-1.34Z"/>
      <path class="cls-20" d="M215.56,724.43c-6.01-4.04-9.71-4.51-16.99-2.71,11.38-1.07,18.05,6.63,23.14,16.86,12.19,16.58,24.57,16.73,39.58,13.93,16.34-5.54,24.3-4.53,35,9.01-5.84-11.65-11.42-15.65-26.39-15.21-.98.43-10.2,3.38-16.99,4.33-14.97.52-19.92-4.77-25.63-10.92-3.38-6.71-5.74-10.46-11.72-15.29Z"/>
      <path class="cls-20" d="M236.51,767.98c-1.09-6.29.13-12.75,5.36-11.58,5.23,1.17,4.12,7.32-3.25,15.73l-2.11-4.15Z"/>
      <path class="cls-20" d="M221.1,753.39c.39-5.27.76-6.82,1.59-8.2,5.54,4.99,5.95,8.11,1.05,14.31l-2.64-6.11Z"/>
      <path class="cls-20" d="M233.56,741.12c4.29-6.74,6.92-9.52,12.13-12.24,1.39,5.09.46,7.57-3.67,11.42-3.67.91-5.61,1.23-8.45.82Z"/>
      <path class="cls-20" d="M223.61,715.94c-2.94.93-4.26,2.16-6.34,4.97,6.82,2.82,9.92,2.52,13.3-3.63-1.87-1.01-3.18-1.42-6.96-1.34Z"/>
      <path class="cls-37" d="M175.91,734.54c1.82-5.08.59-8.17-5.47-13.97.12,1.14-.05,1.83.54,7.26.11,1-3.5,6.32-1,8.8,2.51,2.48,5.02.37,5.93-2.09Z"/>
      <path class="cls-36" d="M45.36,744.76c-22.51-6.06-7.39-72.98,36.02-88.68-11.26,14.95-17.31,27.89-12.69,44.51,7.57,19.09.8,46.81-23.33,44.17Z"/>
      <path class="cls-26" d="M82.8,742.23c-2.24,6.91,7.53,14.83,13,7.55s2.78-14.58-15.8-40.46c8.66,15.29,5.04,26,2.8,32.91Z"/>
      <path class="cls-8" d="M79.51,708.66c.16.22.32.45.48.67M79.99,709.33c18.58,25.87,21.26,33.17,15.8,40.46s-15.23-.64-13-7.55c2.24-6.91,5.85-17.62-2.8-32.91Z"/>
      <path class="cls-22" d="M79.98,677.52c-1.03,4.56-6.09,5.54-5.98-.34.12-5.88,2.8-8.96,15.13-16.75-6.56,5.41-8.12,12.53-9.16,17.09Z"/>
      <path class="cls-15" d="M89.46,660.22c-.11.07-.21.14-.32.2M89.14,660.42c-12.34,7.8-15.02,10.87-15.13,16.75-.12,5.88,4.94,4.9,5.98.34,1.03-4.56,2.59-11.68,9.16-17.09Z"/>
      <path class="cls-38" d="M90.95,671.13c-3.13,3.33-4.94,11.85-7.13,22.85,5.08,2.29,11.97-3.64,10.45-7.48-.54-1.37,3.99,8.07,6.31,9.32,3.55-1.73,4.2-4.8,5.28-10.37,7.98,4.72,11.16,4.42,15.09-.13-5.54-4.34-6.5-5.72-11.7-13.72-5.2-8.01-15.18-3.8-18.32-.47Z"/>
      <path class="cls-38" d="M14.57,740.26c-3.37,3.56-5.4,12.59-7.86,24.25,5.36,2.35,12.75-4.01,11.19-8.05-.56-1.44,4.13,8.48,6.57,9.76,3.79-1.88,4.52-5.13,5.74-11.03,8.41,4.88,11.79,4.52,16.02-.34-5.82-4.51-6.82-5.96-12.23-14.35-5.41-8.4-16.06-3.81-19.43-.25Z"/>
      <path class="cls-1" d="M69.07,525.6c-10.34-12.08-13.32,2.37-13.54,4.96-.22,2.59-7.66-.55-7.02,7.09-.09,5.74,2.62,6.28,7.93,6.77-.84,7.31.53,9.58,5.82,10.8,4.91-.47,5.64-2.54,5.35-7.67,7.36,3.72,9.78,3.18,11.98-1.11,2.21-2.69,1.26-4.88-3.2-9.65,5.25-3.3,5.81-5.53,2.5-10.49-3.13-2.73-5.26-2.94-9.81-.71Z"/>
      <path class="cls-5" d="M60.95,575.7c-4.6-5.74-7.54,2.51-7.9,3.96-.36,1.45-4.17.39-4.5,4.55-.56,3.18.88,3.23,3.75,3.02-1.12,4.11-.57,5.24,2.23,5.44,2.74-.7,3.33-1.91,3.63-4.72,3.71,1.39,5.1.87,6.69-1.69,1.46-1.68,1.14-2.81-.89-5.04,3.18-2.29,3.69-3.58,2.32-6.01-1.48-1.23-2.63-1.15-5.33.49Z"/>
      <path class="cls-5" d="M32.85,665.34c-4.6-5.74-7.54,2.51-7.9,3.96-.36,1.45-4.17.39-4.5,4.55-.56,3.18.88,3.23,3.75,3.02-1.12,4.11-.57,5.24,2.23,5.44,2.74-.7,3.33-1.91,3.63-4.72,3.71,1.39,5.1.87,6.69-1.69,1.46-1.68,1.14-2.81-.89-5.04,3.18-2.29,3.69-3.58,2.32-6.02-1.48-1.23-2.63-1.15-5.33.49Z"/>
      <path class="cls-12" d="M169.74,445.64c2.16,3.9,1.56,6.62-.24,11.69,7-6.67,9.7-9.45,11.23-17.22,1.53-7.78-3.91-12.88-9.1-9.86-5.19,3.02-7.18,7.01-1.89,15.4Z"/>
      <path class="cls-27" d="M130.5,532.1c-19.74,16.96-20.43,29.81-1.96,57.02-17.76-19.71-21.02-31.06-11.76-49.76,35.28-33.15,50-50.48,42.94-74.18-6.56-22-31.04-47.47-62.28-29.35-2.4,1.52-4.86,3.2-7.38,5.02,2.5-1.95,4.96-3.62,7.38-5.02,30.33-19.28,50.94-14.38,67.89,24.78,4.34,22.92,2.04,42.25-34.83,71.5Z"/>
      <path class="cls-4" d="M128.54,589.11c-18.47-27.21-17.78-40.05,1.96-57.02,36.86-29.25,39.16-48.58,34.83-71.5-18.29-42.25-40.84-44.62-75.27-19.75,34.71-27.12,62.59.62,69.66,24.32,7.06,23.7-7.65,41.03-42.94,74.18-9.26,18.7-5.99,30.05,11.76,49.76Z"/>
      <path class="cls-12" d="M175.5,466.27c.52,3.89-.76,6-3.67,9.73,7.46-3.61,10.39-5.16,13.9-11.25,3.51-6.09.79-11.91-4.16-10.86-4.96,1.06-7.69,3.83-6.07,12.38Z"/>
      <path class="cls-12" d="M175.5,466.27c.52,3.89-.76,6-3.67,9.73,7.46-3.61,10.39-5.16,13.9-11.25,3.51-6.09.79-11.91-4.16-10.86-4.96,1.06-7.69,3.83-6.07,12.38Z"/>
      <path class="cls-13" d="M147.87,410.96c-5.74,7.26,12.21,16.63,13.14,27.39.93,10.76,3.26-13.56.85-20.8-5.85-10.12-8.88-11.04-13.99-6.59Z"/>
      <path class="cls-13" d="M120.91,412.21c7.33,1.05,12.19,4.12,21.8,12.55-.77-9.04-1.8-13.77-7.64-19.96-10.19-9.64-14.89-11.41-21.34-7.07-3.99,7.99-2.83,11.3,7.18,14.49Z"/>
      <path class="cls-13" d="M94.37,408.16c-11.65-1.36-15.93-.42-17.14,6.06,1.49,7.08,4.21,8.46,13.64,4.6,5.2-1.42,10.37-1.27,21.42-.22-5.39-6.27-8.49-9.67-17.92-10.44Z"/>
      <path class="cls-13" d="M70.97,430.49c6.98-4.42,11.54-4.53,20.16-2.97-6.19,1.55-9.5,4.01-15.23,11.05-4.77,4.89-7.18,6.38-10.44,4.3-4.53-3.23-3.48-5.9,5.5-12.38Z"/>
      <path class="cls-13" d="M74.84,462.03c-3.33,4.2-4.98,4.65-7.33.1.78-8.9,3.72-12.08,11-16.28-2.61,5.51-3.23,9.18-3.67,16.18Z"/>
      <path class="cls-13" d="M95.33,450.27c2.62-5.95,4.99-8.72,9.88-13.26l-.3-.25c-13.38,7.75-17.81,12.31-16.69,21.15,3.04-1.83,4.62-3.34,7.11-7.65Z"/>
      <path class="cls-13" d="M107.56,446.9c5.1-6.47,8.72-8.92,16.08-12.04-4.17,3.14-6.27,5.16-8.8,10.2-3.95,7-6.03,9.48-9.36,10.86-.74-3.4-.23-5.37,2.08-9.02Z"/>
      <path class="cls-13" d="M120.33,451.91c-2.71-5.72-.83-8.49,9.61-12.35-1.42.67-2.43,1.66-4.84,5.01-.12,4.86-1.07,6.6-4.77,7.33Z"/>
      <path class="cls-13" d="M130.27,450.59c3.9-5.13,7.65-4.22,14.62-1.94-3.68.16-5.34.92-7.83,3.08-6.16,3.57-8.71,4.53-6.78-1.14Z"/>
      <path class="cls-13" d="M136.68,458.77c5.83-5.01,9.43-3.27,16.31,5.7-2.53-1.62-4-2.47-8.27-1.81-6.88-.53-9.43-1.17-8.04-3.88Z"/>
      <path class="cls-13" d="M149.7,472.48c1.77.81,2.69,1.94,4.25,4.68-2.01-10.03-4.13-11.34-9.06-8.7.16,2.11,1.23,2.99,4.82,4.02Z"/>
      <path class="cls-13" d="M153.15,489.5c-1.15-7.27-2.32-10.21-7.59-8.61-1.28,2.95-.21,4.7,4.05,7.91,2.69,2.73,2.35,5.32,2.23,5.8l1.31-5.1Z"/>
      <path class="cls-13" d="M142.3,509.88c3.59-10.52,3.56-14.27-1.35-15.84-2.4,2.3-2.53,3.86-.08,7.29,2.46,3.43,1.43,8.55,1.43,8.55Z"/>
      <path class="cls-13" d="M133.46,518.34c4.28-9.1,5.12-12.84-.4-13.35-2,2.36-2.22,4.37-.7,6.21,1.52,1.84,1.09,7.14,1.09,7.14Z"/>
      <path class="cls-13" d="M172.28,491.33c-3.65,4.29-4.71,5.52-5.96,6.91,9.06-6.18,11.83-9.87,11.83-16.72-4.55,1.8-6.2,3.63-5.87,9.81Z"/>
      <path class="cls-13" d="M162.47,506.91c4.38-3.81,5.86-3.84,7.85-2.5-.72,3.01-2.02,4.63-5.36,7.41-6.54,3.06-8.84,4.02-10.15,3.97,4.07-3.23,5.83-5.18,7.66-8.88Z"/>
      <path class="cls-13" d="M153.47,520.34c-3.55,4.12-6.3,6.71-12.85,11.9,11.98-3.34,17.34-5.85,22.23-12.57-.76-1.5-.85-2.54-9.37.66Z"/>
      <path class="cls-13" d="M145.14,536.01c-4.66,4.61-7.4,6.68-12.97,7.84,11.02-.45,16.2-1.84,21.76-8.43-3.19-1.94-5.05-1.89-8.79.58Z"/>
      <path class="cls-13" d="M143.74,548.44c-1.99-1.99-5.33-1.67-16.37,2.17l2.37.85c9.93.46,12.84,0,14-3.02Z"/>
      <path class="cls-13" d="M135.16,555.98c-4.96,2.61-7.43,3.08-11.38,2.39,9.21,3.37,12.79,3.4,15.54-.61-1.36-1.6-2.16-2.36-4.16-1.78Z"/>
      <path class="cls-13" d="M132.51,565.66c-3.54.74-5.48.29-8.87-2.32,3.44,5.19,5.72,7.21,11.08,7.56,1.88-2.94.8-3.9-2.21-5.24Z"/>
      <path class="cls-13" d="M134.51,573.55c-3.72.23-5.63-.31-8.59-2.65,5.63,6.39,8.28,8.57,11.39,7.81.49-3.37-.38-4.29-2.79-5.16Z"/>
      <path class="cls-13" d="M135.04,581.35c-2.82-.54-5.06-.09-7.69-1.89,5.16,5.72,7.4,6.93,10.45,5.9-.45-2.47-1.1-3.28-2.76-4Z"/>
      <path class="cls-14" d="M78.75,445.48l-.24.36M78.51,445.84c-7.29,4.2-10.22,7.38-11,16.28,2.35,4.55,4.01,4.1,7.33-.1.44-7,1.05-10.68,3.67-16.18ZM161.02,438.35c-.93-10.76-18.88-20.13-13.14-27.39,5.11-4.45,8.14-3.53,13.99,6.59,2.41,7.24.08,31.55-.85,20.8ZM142.71,424.75c-9.61-8.43-14.47-11.49-21.8-12.55-10.01-3.18-11.17-6.49-7.18-14.49,6.45-4.34,11.15-2.57,21.34,7.07,5.84,6.19,6.86,10.92,7.64,19.96ZM77.23,414.22c1.21-6.48,5.49-7.42,17.14-6.06,9.43.77,12.53,4.17,17.92,10.44-11.05-1.05-16.22-1.2-21.42.22-9.43,3.86-12.14,2.48-13.64-4.6ZM91.13,427.52c-8.62-1.56-13.19-1.45-20.16,2.97-8.98,6.48-10.03,9.16-5.5,12.38,3.26,2.08,5.67.59,10.44-4.3,5.73-7.05,9.04-9.5,15.23-11.05ZM105.21,437.02c-4.89,4.54-7.26,7.31-9.88,13.26-2.49,4.3-4.07,5.82-7.11,7.65-1.12-8.85,3.31-13.4,16.69-21.15l.3.25ZM123.64,434.86c-7.36,3.12-10.98,5.57-16.08,12.04-2.31,3.65-2.82,5.62-2.08,9.02,3.33-1.38,5.42-3.86,9.36-10.86,2.53-5.04,4.63-7.06,8.8-10.2ZM129.94,439.56c-10.44,3.86-12.32,6.63-9.61,12.35,3.7-.73,4.65-2.48,4.77-7.33,2.41-3.36,3.42-4.35,4.84-5.01ZM144.89,448.64c-6.97-2.28-10.71-3.19-14.62,1.94-1.93,5.67.62,4.71,6.78,1.14,2.49-2.16,4.15-2.92,7.83-3.08ZM152.99,464.47c-6.88-8.97-10.48-10.71-16.31-5.7-1.39,2.71,1.16,3.35,8.04,3.88,4.27-.65,5.74.2,8.27,1.81ZM153.95,477.16c-1.56-2.74-2.48-3.87-4.25-4.68-3.59-1.03-4.66-1.91-4.82-4.02,4.93-2.64,7.06-1.33,9.06,8.7ZM145.55,480.9c5.27-1.6,6.45,1.33,7.59,8.61l-1.32,5.13c.11-.41.51-3.05-2.23-5.82-4.26-3.21-5.33-4.97-4.05-7.91ZM140.95,494.03c4.91,1.57,4.94,5.32,1.35,15.84,0,0,1.03-5.12-1.43-8.55-2.46-3.44-2.32-4.99.08-7.29ZM133.06,504.99c5.52.51,4.67,4.25.4,13.35,0,0,.43-5.3-1.09-7.14-1.52-1.84-1.3-3.85.7-6.21ZM166.32,498.24c1.25-1.39,2.31-2.62,5.96-6.91-.33-6.18,1.33-8.01,5.87-9.81,0,6.85-2.77,10.54-11.83,16.72ZM170.32,504.41c-1.99-1.34-3.47-1.31-7.85,2.5-1.83,3.7-3.59,5.65-7.66,8.88,1.32.05,3.62-.91,10.15-3.97,3.33-2.78,4.63-4.4,5.36-7.41ZM140.62,532.24c6.55-5.19,9.3-7.79,12.85-11.9,8.52-3.2,8.62-2.16,9.37-.66-4.89,6.72-10.25,9.22-22.23,12.57ZM132.16,543.86c5.58-1.16,8.31-3.23,12.97-7.84,3.73-2.47,5.6-2.52,8.79-.58-5.57,6.58-10.74,7.98-21.76,8.43ZM127.37,550.61c11.04-3.85,14.38-4.16,16.37-2.17-1.15,3.02-4.07,3.48-14,3.02l-2.37-.85ZM123.79,558.37c3.95.69,6.42.22,11.38-2.39,2-.58,2.8.18,4.16,1.78-2.75,4.01-6.33,3.98-15.54.61ZM123.64,563.34c3.4,2.6,5.33,3.05,8.87,2.32,3.01,1.35,4.09,2.3,2.21,5.24-5.37-.35-7.64-2.37-11.08-7.56ZM125.92,570.91c2.96,2.33,4.87,2.88,8.59,2.65,2.42.88,3.28,1.79,2.79,5.16-3.11.76-5.75-1.42-11.39-7.81ZM127.35,579.46c2.62,1.8,4.87,1.36,7.69,1.89,1.66.72,2.31,1.53,2.76,4-3.05,1.03-5.29-.17-10.45-5.9Z"/>
      <path class="cls-33" d="M254.56,615.31c-2.47-1.43-4.39-1.01-8.02.23,5.23-4.74,7.38-6.57,12.85-7.64,5.47-1.07,8.45,2.55,5.89,6.06-2.56,3.51-5.47,4.86-10.72,1.36Z"/>
      <path class="cls-30" d="M191.67,642.17c-13.47,13.36-22.33,13.89-39.22,1.64,11.82,11.82,19.28,13.95,32.96,7.63,26.02-23.9,39.27-33.88,54.83-29.27,14.44,4.28,29.57,20.59,14.21,41.68-1.27,1.62-2.65,3.28-4.13,4.99,1.57-1.69,2.94-3.35,4.13-4.99,16.06-20.49,14.65-34.31-10.56-45.48-15.28-2.78-28.73-1.13-52.23,23.8Z"/>
      <path class="cls-21" d="M152.45,643.8c16.88,12.25,25.74,11.73,39.22-1.64,23.5-24.93,36.95-26.59,52.23-23.8,27.2,12.05,26.69,27.19,6.42,50.46,21.84-23.48,5.48-42.05-10.08-46.67-15.56-4.61-28.81,5.37-54.83,29.27-13.68,6.32-21.14,4.19-32.96-7.63Z"/>
      <path class="cls-33" d="M240.98,611.56c-2.61-.33-4.18.54-7.01,2.52,3.17-5.03,4.51-7.01,9.01-9.4,4.5-2.4,8.23-.6,7.04,2.74-1.19,3.34-3.35,5.19-9.04,4.15Z"/>
      <path class="cls-33" d="M240.98,611.56c-2.61-.33-4.18.54-7.01,2.52,3.17-5.03,4.51-7.01,9.01-9.41,4.5-2.39,8.23-.6,7.04,2.74-1.19,3.34-3.35,5.19-9.04,4.15Z"/>
      <path class="cls-33" d="M72.21,741.17c2.11-1.86,2.54-3.56,3.01-6.86,1.67,5.24,2.27,7.38.94,12.21-1.32,4.83-5.38,6.77-7.14,4-1.76-2.76-1.67-5.47,3.19-9.35Z"/>
      <path class="cls-30" d="M255.61,681.6c3.68-4.71,4.19-7.78,3.93-13.57-1.65,4.17-3.64,6.4-9,10.29-3.8,3.23-5.04,4.86-3.93,7.04,1.78,3.03,3.71,2.31,9-3.77Z"/>
      <path class="cls-30" d="M234.39,679.17c-3.19,2.26-3.65,3.37-.76,4.93,6.17-.57,8.62-2.56,12.18-7.48-4.01,1.79-6.59,2.22-11.42,2.56Z"/>
      <path class="cls-30" d="M244.36,665.34c4.32-1.79,6.44-3.4,10.01-6.71l.14.2c-6.57,9.03-10.11,12.04-16.06,11.33,1.54-2.05,2.72-3.12,5.9-4.82Z"/>
      <path class="cls-30" d="M247.83,657.1c4.91-3.46,6.93-5.91,9.76-10.87-2.55,2.82-4.12,4.24-7.81,5.97-5.16,2.69-7.05,4.11-8.32,6.35,2.26.48,3.65.12,6.37-1.45Z"/>
      <path class="cls-30" d="M245.61,648.55c3.66,1.79,5.73.51,9.36-6.53-.59.96-1.36,1.64-3.89,3.28-3.34.11-4.62.76-5.47,3.25Z"/>
      <path class="cls-30" d="M247.45,641.86c3.88-2.65,3.61-5.16,2.71-9.83-.46,2.48-1.14,3.59-2.85,5.28-3.02,4.16-3.92,5.88.14,4.55Z"/>
      <path class="cls-30" d="M242.45,637.61c3.98-3.95,3.13-6.35-2.36-10.93.87,1.69,1.31,2.67.46,5.55-.28,4.62-.09,6.33,1.9,5.38Z"/>
      <path class="cls-30" d="M234.3,628.93c-.39-1.19-1.08-1.8-2.8-2.83,6.67,1.29,7.38,2.71,5.1,6.04-1.43-.09-1.93-.81-2.3-3.21Z"/>
      <path class="cls-30" d="M222.97,626.71c4.87.73,6.77,1.5,5.17,5.05-2.14.88-3.24.17-5.03-2.68-1.61-1.79-3.42-1.55-3.76-1.47l3.62-.91Z"/>
      <path class="cls-30" d="M207.99,634.11c7.54-2.47,10.11-2.47,10.72.82-1.8,1.63-2.88,1.72-5,.09-2.12-1.63-5.72-.91-5.72-.91Z"/>
      <path class="cls-30" d="M201.37,640.1c6.63-2.92,9.27-3.51,9.1.19-1.8,1.35-3.2,1.51-4.32.5-1.12-1.01-4.78-.69-4.78-.69Z"/>
      <path class="cls-30" d="M223.52,613.87c-3.28,2.47-4.22,3.2-5.29,4.04,5.09-6.12,7.88-8.01,12.56-8.04-1.66,3.07-3.07,4.19-7.27,4Z"/>
      <path class="cls-30" d="M211.93,620.54c3.02-2.96,3.18-3.96,2.45-5.29-2.13.5-3.36,1.39-5.58,3.64-2.72,4.41-3.58,5.96-3.68,6.85,2.6-2.75,4.1-3.95,6.8-5.2Z"/>
      <path class="cls-30" d="M201.89,626.66c-3.16,2.41-5.19,4.27-9.36,8.7,3.42-8.07,5.64-11.68,10.7-15,.96.5,1.66.56-1.34,6.3Z"/>
      <path class="cls-30" d="M190.37,632.35c-3.59,3.16-5.27,5.01-6.59,8.76,1.35-7.41,2.79-10.89,7.82-14.67,1.03,2.13.82,3.39-1.23,5.91Z"/>
      <path class="cls-30" d="M181.73,633.36c1.17,1.33.64,3.58-3.03,11.01l-.36-1.59c.62-6.67,1.21-8.63,3.39-9.42Z"/>
      <path class="cls-30" d="M175.76,639.17c-2.25,3.35-2.81,5.01-2.71,7.66-1.44-6.17-1.12-8.58,1.88-10.44.97.91,1.41,1.44.83,2.79Z"/>
      <path class="cls-30" d="M168.88,641c-.84,2.39-.71,3.68.75,5.95-3.23-2.28-4.4-3.8-4.13-7.4,2.19-1.28,2.74-.56,3.38,1.45Z"/>
      <path class="cls-30" d="M163.67,639.7c-.51,2.5-.32,3.78,1,5.76-3.84-3.75-5.08-5.52-4.27-7.61,2.35-.35,2.9.23,3.27,1.85Z"/>
      <path class="cls-30" d="M158.38,639.39c.1,1.89-.41,3.4.57,5.16-3.43-3.44-4.05-4.93-3.05-6.99,1.65.29,2.15.72,2.48,1.83Z"/>
      <path class="cls-21" d="M246.08,676.45l-.27.17M245.81,676.62c-3.56,4.92-6.02,6.91-12.18,7.48-2.89-1.56-2.43-2.67.76-4.93,4.83-.33,7.41-.77,11.42-2.56ZM258.73,621.14c7.28.57,12,12.57,17.51,8.68,3.53-3.46,3.18-5.49-3.19-9.36-4.73-1.58-21.59.12-14.32.69ZM266.3,633.36c4.86,6.41,6.5,9.65,6.53,14.58,1.23,6.71,3.39,7.47,9.24,4.74,3.58-4.36,2.81-7.51-2.83-14.3-3.69-3.89-6.83-4.55-12.95-5.02ZM267.34,677.29c4.55-.85,5.6-3.73,5.77-11.55.36-6.33-1.67-8.4-5.45-11.98-.32,7.42-.71,10.89-2.17,14.39-3.53,6.36-2.84,8.18,1.86,9.14ZM259.54,668.03c.26,5.79-.25,8.85-3.93,13.57-5.29,6.07-7.22,6.79-9,3.77-1.12-2.18.13-3.8,3.93-7.04,5.36-3.89,7.36-6.12,9-10.29ZM254.37,658.63c-3.57,3.31-5.69,4.92-10.01,6.71-3.18,1.7-4.37,2.77-5.9,4.82,5.95.7,9.49-2.3,16.06-11.33l-.14-.2ZM257.59,646.23c-2.83,4.96-4.85,7.41-9.76,10.87-2.72,1.57-4.11,1.92-6.37,1.45,1.26-2.25,3.15-3.66,8.32-6.35,3.69-1.72,5.27-3.15,7.81-5.97ZM254.97,642.02c-3.63,7.04-5.7,8.32-9.36,6.53.85-2.49,2.13-3.14,5.47-3.25,2.52-1.64,3.3-2.33,3.89-3.28ZM250.16,632.03c.9,4.67,1.17,7.18-2.71,9.83-4.06,1.33-3.16-.39-.14-4.55,1.71-1.69,2.39-2.81,2.85-5.28ZM240.09,626.68c5.49,4.58,6.34,6.98,2.36,10.93-1.99.95-2.19-.76-1.9-5.38.85-2.88.41-3.86-.46-5.55ZM231.49,626.1c1.73,1.03,2.42,1.64,2.8,2.83.37,2.41.87,3.12,2.3,3.21,2.27-3.33,1.57-4.75-5.1-6.04ZM228.14,631.77c1.59-3.55-.3-4.32-5.17-5.05l-3.63.91c.29-.08,2.13-.36,3.78,1.46,1.8,2.85,2.9,3.55,5.03,2.68ZM218.71,634.93c-.61-3.29-3.18-3.29-10.72-.82,0,0,3.6-.72,5.72.91,2.12,1.63,3.2,1.53,5-.09ZM210.47,640.29c.17-3.7-2.47-3.12-9.1-.19,0,0,3.67-.32,4.78.7,1.11,1.01,2.51.85,4.32-.5ZM218.23,617.91c1.07-.85,2.01-1.57,5.29-4.04,4.2.19,5.61-.94,7.27-4-4.69.04-7.47,1.92-12.56,8.04ZM214.38,615.26c.73,1.33.57,2.32-2.45,5.29-2.71,1.25-4.21,2.44-6.8,5.2.09-.89.96-2.44,3.68-6.85,2.21-2.25,3.45-3.14,5.58-3.64ZM192.52,635.37c4.17-4.43,6.21-6.29,9.36-8.7,3-5.74,2.29-5.8,1.34-6.3-5.06,3.32-7.28,6.94-10.7,15ZM183.78,641.12c1.32-3.75,3-5.6,6.59-8.76,2.05-2.52,2.25-3.77,1.23-5.91-5.03,3.78-6.48,7.26-7.82,14.67ZM178.7,644.37c3.67-7.44,4.2-9.69,3.03-11.01-2.18.79-2.77,2.75-3.39,9.42l.36,1.59ZM173.05,646.82c-.1-2.65.45-4.31,2.71-7.66.58-1.35.14-1.88-.83-2.79-3,1.87-3.32,4.27-1.88,10.44ZM169.63,646.95c-1.46-2.27-1.59-3.56-.75-5.95-.64-2.01-1.19-2.73-3.38-1.45-.27,3.6.9,5.12,4.13,7.4ZM164.67,645.46c-1.32-1.97-1.51-3.26-1-5.76-.37-1.62-.92-2.19-3.27-1.85-.81,2.09.43,3.86,4.27,7.61ZM158.95,644.55c-.98-1.75-.47-3.26-.57-5.16-.34-1.11-.83-1.54-2.48-1.83-1,2.06-.38,3.55,3.05,6.99Z"/>
      <path class="cls-36" d="M82.51,516.73c5.02,31.57,12.28,45.03,27.53,67.74-15.02-29.04-15.89-47.17,4.4-84.87,8.48-19.31,4.82-33.52-10.2-33.05-15.01.48-19.85,19.9-21.74,50.17Z"/>
      <path class="cls-1" d="M82.02,585.26c-10.42-.98-12.18,1.16-4.5,12.22-5.4,9.95-1.06,13.87,4.37,8.9,5.43-4.97,7.07-6.77,17.68-9.87-5.57-6.4-9.3-9.04-17.55-11.25Z"/>
      <path class="cls-1" d="M25.09,605.59c-18.66-5.12-22.49-1.65-11.81,21.52-12.76,16.98-6.03,25.68,5.32,18.07,11.35-7.62,14.85-10.49,35.08-12.95-8.24-13.75-14.24-19.88-28.59-26.63Z"/>
      <path class="cls-33" d="M89.48,559.68c.47,12.09,3.93,16.59,12.69,22.78-16.42.01-24.17-1.35-25.11-23.75,4.67-3.44,7.36-3.89,12.42.98Z"/>
      <path class="cls-29" d="M165.72,578.85c-9.28,5.78-11.26,9.68-11.59,17.28,2.63-7.11,4.76-10.62,12.04-14.39,17.31-7.05,21.82-13.62,22.63-28.98-1.88-16.55.49-23.39,13.61-29.34-15.04,4.02-17.57,10.61-16.4,26.59-.22,13.16-.06,20.61-20.29,28.85Z"/>
      <path class="cls-29" d="M157.03,571.48c3.14,2.9,4.02,4.95.95,10.73l-.86-.24c-3.19-3.87-3.58-6.14-.09-10.49Z"/>
      <path class="cls-29" d="M168.16,564.14c2.08,3.36,3.69,4.64,6.99,6.31,1.63-7.77.24-10.13-7.1-10.09l.11,3.78Z"/>
      <path class="cls-29" d="M173.49,549.84c2.53,2.97,4.6,4.57,8.69,7.38.34-3.9-.18-5.89-3.37-8.85-2.69-1.78-3.82-1.32-5.31,1.47Z"/>
      <path class="cls-29" d="M177.93,535.89c.6,5.16,2.05,6.61,6.38,6.93l-1.79-5.44c-1-1.7-1.92-2.14-4.59-1.49Z"/>
      <path class="cls-29" d="M183.77,529.44l2.17,3.38.3-.31c1.27-3.13.86-4.39-1.17-6.06-1.29,1.42-1.55,2.08-1.3,2.99Z"/>
      <path class="cls-29" d="M191.17,520.85c2.13.94,2.94,1.71,1.81,4.85l-2.43-4.24.61-.62Z"/>
      <path class="cls-29" d="M200.8,520.6c-.47.91-.12,1.04.22,1.44l1.22-1.24c-1.46-2.03-1.66-2.11-1.67-1.65-.52.67-.55,1.02.22,1.44Z"/>
      <path class="cls-29" d="M200.86,528.61l-1.25-1.24c1.39-.03,1.86.09,1.86.62,1.14,1.5,1.4,2.01-.61.62Z"/>
      <path class="cls-29" d="M197.44,536.24c.15-1.08.01-2.75-2.09-2.07-3.74,1.21-2,2.18,2.09,2.07Z"/>
      <path class="cls-29" d="M197.31,545.28c-1.59-1.37-7.97-3.68-7.26-.46.61,2.8,9.6,1.28,7.26.46Z"/>
      <path class="cls-29" d="M200.9,555.58c-4.08-4.06-6-3.73-9.24-1.81,1.3,2.6,2.36,3.72,5.93,4.04l3.31-2.23Z"/>
      <path class="cls-29" d="M195.79,565.19c-3.96-2.58-7.54-.74-6.98-.19l-.56-.55c1.12,2.71,1.95,4.06,4.09,5.89,5.56.93,11.66.21,3.45-5.15Z"/>
      <path class="cls-29" d="M181.86,576.48c-2.36.63-3.5,1.25-5.09,2.91,5.03,2.44,7.28,2.35,10.6.26l-.03-.03c-1.61-1.8-2.52-2.82-5.48-3.14Z"/>
      <path class="cls-19" d="M202.11,529.85l-1.25-1.24M200.86,528.61l-1.25-1.24c1.39-.03,1.86.09,1.86.62,1.14,1.5,1.4,2.01-.61.62ZM187.54,579.66h-.17M187.37,579.65c-3.32,2.09-5.57,2.18-10.6-.26,1.59-1.66,2.73-2.28,5.09-2.91,2.98.32,3.88,1.35,5.51,3.17ZM154.13,596.13c.34-7.6,2.31-11.5,11.59-17.28,20.23-8.24,20.07-15.69,20.29-28.85-1.17-15.97,1.36-22.56,16.4-26.59-13.13,5.96-15.5,12.79-13.61,29.34-.81,15.36-5.32,21.93-22.63,28.98-7.28,3.76-9.41,7.28-12.04,14.39ZM157.99,582.21c3.07-5.78,2.19-7.83-.95-10.73-3.49,4.35-3.1,6.62.09,10.49l.86.24ZM175.15,570.45c-3.3-1.67-4.9-2.94-6.99-6.31l-.11-3.78c7.34-.04,8.73,2.32,7.1,10.09ZM182.18,557.22c-4.09-2.81-6.16-4.41-8.69-7.38,1.49-2.79,2.62-3.25,5.31-1.47,3.19,2.96,3.72,4.95,3.37,8.85ZM184.31,542.82c-4.33-.31-5.78-1.76-6.38-6.93,2.67-.65,3.59-.21,4.59,1.49l1.79,5.44ZM185.95,532.81l-2.17-3.38c-.24-.91.02-1.57,1.3-2.99,2.04,1.67,2.44,2.93,1.17,6.06l-.3.31ZM192.98,525.71c1.13-3.14.31-3.92-1.81-4.85l-.61.62,2.43,4.24ZM201.02,522.04c-.34-.41-.7-.54-.22-1.44-.77-.43-.74-.77-.22-1.44.01-.46.21-.37,1.67,1.65l-1.22,1.24ZM197.44,536.24c.15-1.08.01-2.75-2.09-2.07-3.74,1.21-2,2.18,2.09,2.07ZM197.31,545.28c-1.59-1.37-7.97-3.68-7.26-.46.61,2.8,9.6,1.28,7.26.46ZM191.67,553.77c3.24-1.93,5.16-2.26,9.24,1.81l-3.31,2.23c-3.57-.31-4.63-1.43-5.93-4.04ZM188.81,565.01c-.56-.55,3.03-2.39,6.98.19,8.22,5.36,2.11,6.08-3.45,5.15-2.15-1.83-2.98-3.18-4.09-5.89l.56.55Z"/>
      <polygon class="cls-17" points="61.59 641.77 114.74 562.73 188.61 608 135.46 687.05 61.59 641.77"/>
      <polygon class="cls-17" points=".04 705.51 16.21 676.44 45.05 690.93 28.88 720 .04 705.51"/>
      <polygon class="cls-17" points="0 522.57 21.66 483.63 59.55 502.67 37.89 541.61 0 522.57"/>
      <ellipse class="cls-6" cx="66.66" cy="636.76" rx="10.43" ry="9.41" transform="translate(-432.72 236.09) rotate(-45.28)"/>
      <ellipse class="cls-9" cx="60.37" cy="613.4" rx="8.69" ry="7.84" transform="translate(-417.98 224.7) rotate(-45.28)"/>
      <ellipse class="cls-3" cx="14.46" cy="591.76" rx="8.16" ry="7.14" transform="translate(-416.2 185.66) rotate(-45.28)"/>
      <ellipse class="cls-3" cx="101.82" cy="707.95" rx="8.69" ry="7.84" transform="translate(-472.88 282.18) rotate(-45.28)"/>
      <ellipse class="cls-31" cx="195.73" cy="709.51" rx="8.69" ry="7.84" transform="translate(-446.15 349.37) rotate(-45.28)"/>
      <ellipse class="cls-6" cx="45.09" cy="603.77" rx="6.52" ry="5.88" transform="translate(-415.67 210.98) rotate(-45.28)"/>
      <ellipse class="cls-6" cx="42.81" cy="652.3" rx="6.09" ry="5.49" transform="translate(-450.82 223.75) rotate(-45.28)"/>
      <ellipse class="cls-25" cx="19.94" cy="655.35" rx="4.35" ry="3.92" transform="translate(-459.77 208.4) rotate(-45.28)"/>
      <ellipse class="cls-25" cx="115.75" cy="696.65" rx="5.65" ry="5.09" transform="translate(-460.72 288.73) rotate(-45.28)"/>
      <ellipse class="cls-3" cx="80.4" cy="758.03" rx="4.35" ry="3.92" transform="translate(-514.81 281.8) rotate(-45.28)"/>
      <ellipse class="cls-9" cx="42.26" cy="577.11" rx="5.22" ry="4.7" transform="translate(-397.56 201.07) rotate(-45.28)"/>
      <ellipse class="cls-9" cx="38.65" cy="591.9" rx="5.22" ry="4.7" transform="translate(-409.13 202.89) rotate(-45.28)"/>
      <path class="cls-10" d="M144.01,688.23c-5.09,1.1-8.27.62-14.22-1.23,6.67,11.48,10.69,13.53,18.23,8.88.47-3.29-.61-4.93-4.01-7.64Z"/>
      <path class="cls-11" d="M190.5,665.78c.51-6.9-29.13-14.39-48.94,5.98,10.22-3.18,16.67-3.48,30.55.89,12.36,3.49,17.88.03,18.39-6.87Z"/>
      <path class="cls-35" d="M127.5,709.77c-11.78-4.24-15.8-3.09-13.93,11.29-12.92,5.45-15.47,10.78-5.72,16.36-6.04,12.26-3.27,14.74,10.17,13.13,1.94,13.46,6.22,13.02,17.64,2.79,11.4,7.02,13.3,3.47,12.68-9.47,14.1-4.8,15.05-8.85,4.94-18.35,7.62-10.64,5.65-13.47-9.91-12.27-1.34-13.08-4.07-15.63-15.86-3.47Z"/>
      <path class="cls-38" d="M165.9,754.46c-4.06-1.57-5.42-1.22-4.63,3.7-4.35,1.72-5.16,3.51-1.78,5.52-1.93,4.12-.96,4.99,3.61,4.58.81,4.61,2.26,4.51,6.05,1.14,3.97,2.51,4.58,1.33,4.23-3.09,4.76-1.49,5.04-2.86,1.49-6.21,2.48-3.55,1.78-4.53-3.52-4.29-.6-4.47-1.56-5.38-5.45-1.36Z"/>
      <path class="cls-33" d="M197.28,734.62c-7.01-2.46-9.41-1.75-8.39,6.82-7.75,3.33-9.3,6.53-3.52,9.81-3.68,7.36-2.04,8.82,5.99,7.78,1.08,8.02,3.63,7.74,10.52,1.56,6.76,4.12,7.92,1.99,7.63-5.73,8.45-2.96,9.04-5.38,3.06-10.99,4.61-6.4,3.46-8.08-5.85-7.26-.72-7.8-2.34-9.31-9.45-1.98Z"/>
      <path class="cls-35" d="M129.5,669.38c-2.84-.99-3.81-.71-3.4,2.76-3.14,1.35-3.77,2.64-1.42,3.97-1.49,2.98-.83,3.57,2.42,3.15.44,3.25,1.47,3.13,4.26.63,2.74,1.67,3.21.81,3.09-2.32,3.42-1.2,3.66-2.18,1.24-4.45,1.87-2.59,1.4-3.27-2.37-2.94-.29-3.16-.95-3.77-3.83-.8Z"/>
      <path class="cls-35" d="M193.12,682.91c-2.83-.77-3.86-.39-3.74,3.14-3.34,1.67-4.11,3.06-1.81,4.21-1.79,3.2-1.16,3.75,2.22,3.03.16,3.31,1.24,3.1,4.32.28,2.67,1.48,3.23.55,3.38-2.66,3.62-1.53,3.96-2.56,1.67-4.69,2.15-2.84,1.73-3.49-2.17-2.82-.02-3.23-.64-3.8-3.87-.49Z"/>
      <path class="cls-23" d="M212.67,644.51l-18.83,10.11c4.03,1.45,6.87,2.53,11.94.2,5.06-2.33,4.98-6.89,6.89-10.3Z"/>
      <path class="cls-23" d="M194.29,669.74c.64-1.2,5.8-9.35,6.72-12.92,5.29,5.24,6.24,15.97-1.35,16.4-3.46.8-5.76-1.42-5.37-3.48Z"/>
      <path class="cls-18" d="M212.67,644.51l-18.83,10.11c4.03,1.45,6.87,2.53,11.94.2,5.06-2.33,4.98-6.89,6.89-10.3Z"/>
      <path class="cls-18" d="M194.29,669.74c.64-1.2,5.8-9.35,6.72-12.92,5.29,5.24,6.24,15.97-1.35,16.4-3.46.8-5.76-1.42-5.37-3.48Z"/>
      <path class="cls-23" d="M26.97,731.43l-3.76-11.93c-1.38,2.31-2.4,3.94-1.62,7.12.78,3.18,3.55,3.44,5.38,4.81Z"/>
      <path class="cls-23" d="M13.97,718.75c.65.46,4.94,4.1,6.99,4.89-3.84,2.81-10.47,2.66-9.78-1.91-.05-2.12,1.59-3.35,2.79-2.98Z"/>
      <path class="cls-18" d="M26.97,731.43l-3.76-11.93c-1.38,2.31-2.4,3.94-1.62,7.12.78,3.18,3.55,3.44,5.38,4.81Z"/>
      <path class="cls-18" d="M13.97,718.75c.65.46,4.94,4.1,6.99,4.89-3.84,2.81-10.47,2.66-9.78-1.91-.05-2.12,1.59-3.35,2.79-2.98Z"/>
      <path class="cls-2" d="M175.93,690.66c-.38,5.44-5.89,9.5-10.93,2.93-.32,2.86,1.17,5.91,6.87,5.22,2.76-.34,6.43-3.61,6.87-6.94.62-4.68-3.85-13.33-12.95-11.24-8.6,3.12-11.83,8.91-10.49,18.7l-3.87-.66c-.16-11.68,6.37-19.6,12.61-20.83,8.34-2.85,13.17.88,17.67,7.98,1.19,10.75-4.19,14.36-9.66,16.34-9.08,1.06-13.08-5.02-10.87-11.82,5.87-8.46,13.04-5.07,14.74.31Z"/>
      <path class="cls-37" d="M191.23,727.42c3.59-6.66-.7-10.6-25.09-18.11,2.28,1.12,3.56,1.75,9.97,11.1,6.48,9.38,9.87,11.84,15.11,7.01Z"/>
      <path class="cls-34" d="M225.16,669.36c-3.78-1.98-13.29,3.99-20,14.04,7.58,9.07,11.61,10.31,18.51,7.78,3.84-2.79,1.68-5.54-3.37-10.37,5.92-5.71,7.19-8.71,4.87-11.44Z"/>
      <path class="cls-33" d="M253.56,692.59c-4.73-2.42-16.88,5.34-25.58,18.19,9.36,11.29,14.42,12.76,23.19,9.4,4.91-3.61,2.25-7.04-4.02-13.02,7.61-7.35,9.27-11.16,6.41-14.56Z"/>
      <path class="cls-28" d="M259.52,760.68c2.02,4.38,2.37,9.33-1.68,9.49-4.05.16-4.42-4.55-.67-12.12l2.34,2.62Z"/>
      <path class="cls-20" d="M259.52,760.68c2.02,4.38,2.37,9.33-1.68,9.49-4.05.16-4.42-4.55-.67-12.12l2.34,2.62Z"/>
      <path class="cls-28" d="M274.52,757.12c3.18,3.63,4.93,8.27,1.09,9.58-3.83,1.3-5.53-3.1-4.08-11.43l2.99,1.85Z"/>
      <path class="cls-20" d="M274.52,757.12c3.18,3.63,4.93,8.27,1.09,9.58-3.83,1.3-5.53-3.1-4.08-11.43l2.99,1.85Z"/>
      <path class="cls-28" d="M288.94,758.86c1.19,2.59,1.4,5.51-.99,5.61-2.39.09-2.61-2.68-.39-7.16l1.38,1.55Z"/>
      <path class="cls-20" d="M288.94,758.86c1.19,2.59,1.4,5.51-.99,5.61-2.39.09-2.61-2.68-.39-7.16l1.38,1.55Z"/>
      <path class="cls-28" d="M254.77,743.06c-1.91-4.43-2.15-9.39,1.9-9.45,4.05-.06,4.31,4.65.38,12.13l-2.28-2.68Z"/>
      <path class="cls-20" d="M254.77,743.06c-1.91-4.43-2.15-9.39,1.9-9.45,4.05-.06,4.31,4.65.38,12.13l-2.28-2.68Z"/>
      <path class="cls-28" d="M269.88,740.26c-1.8-4.48-1.91-9.44,2.14-9.4,4.05.04,4.19,4.76.07,12.14l-2.21-2.74Z"/>
      <path class="cls-20" d="M268.76,739.08c.02-4.83,1.78-9.46,5.52-7.9,3.74,1.56,2.1,5.99-4.5,11.27l-1.02-3.37Z"/>
      <path class="cls-28" d="M283.65,741.98c1.23-2.81,3.43-5.06,5.22-3.21,1.78,1.86-.29,4.02-5.48,5.43l.26-2.22Z"/>
      <path class="cls-20" d="M283.65,741.98c1.23-2.81,3.43-5.06,5.22-3.21,1.78,1.86-.29,4.02-5.48,5.43l.26-2.22Z"/>
      <path class="cls-28" d="M295.37,749.94c1.22-.64,2.63-.82,2.74.34.11,1.16-1.23,1.33-3.46.37l.72-.71Z"/>
      <path class="cls-20" d="M295.37,749.94c1.22-.64,2.63-.82,2.74.34.11,1.16-1.23,1.33-3.46.37l.72-.71Z"/>
    </g>
    <path class="cls-29" d="M381.3,664.01c-4.28,0-7.75-.67-10.41-2-2.67-1.37-4.65-3.12-5.94-5.24-1.26-2.12-1.88-4.33-1.88-6.65s.59-4.41,1.77-6.53c1.18-2.16,2.88-4.1,5.12-5.83,2.28-1.77,5.06-3.16,8.36-4.18,3.3-1.06,7.06-1.59,11.3-1.59,2.47,0,4.88.35,7.24,1.06,2.35.67,4.65,1.55,6.88,2.65,2.24,1.06,4.35,2.2,6.35,3.41,2.04,1.18,3.92,2.29,5.65,3.35,1.73,1.06,3.26,1.92,4.59,2.59,1.37.67,2.51,1,3.41,1v.53c-1.1,0-2.51-.45-4.24-1.35-1.69-.94-3.63-2.08-5.83-3.41-2.16-1.37-4.51-2.73-7.06-4.06-2.55-1.33-5.22-2.45-8-3.35-2.75-.94-5.57-1.41-8.47-1.41-3.73,0-7.2.45-10.41,1.35-3.18.86-5.96,2.1-8.36,3.71-2.39,1.61-4.26,3.49-5.59,5.65-1.33,2.16-2,4.47-2,6.94s.73,4.86,2.18,6.83c1.45,1.92,3.49,3.43,6.12,4.53,2.67,1.06,5.77,1.59,9.3,1.59,2.9,0,5.55-.51,7.94-1.53,2.39-1.06,4.3-2.47,5.71-4.24s2.12-3.71,2.12-5.83c0-1.53-.37-2.86-1.12-4-.71-1.14-1.73-1.98-3.06-2.53l.29-.35c1.37.63,2.45,1.53,3.24,2.71s1.18,2.57,1.18,4.18c0,2.2-.73,4.22-2.18,6.06-1.45,1.8-3.41,3.26-5.88,4.35-2.47,1.06-5.24,1.59-8.3,1.59ZM454.62,646.89c-2.79.24-5.73.98-8.83,2.24-3.06,1.26-6.18,2.86-9.36,4.82-3.14,1.96-6.2,4.14-9.18,6.53-2.98,2.39-5.77,4.84-8.36,7.36s-4.86,4.94-6.83,7.3c-1.96,2.31-3.49,4.41-4.59,6.3-1.1,1.84-1.65,3.3-1.65,4.35,0,.12.04.18.12.18.16,0,.43-.27.82-.82.43-.55.86-1.18,1.29-1.88.47-.71.86-1.29,1.18-1.77,1.26-1.96,2.22-4.08,2.88-6.35.67-2.31,1.24-4.71,1.71-7.18.51-2.51,1.14-5.02,1.88-7.53.75-2.55,1.78-5.02,3.12-7.41,1.33-2.39,3.2-4.63,5.59-6.71l.59.24c-1.29.86-2.43,2.2-3.41,4-.94,1.77-1.82,3.86-2.65,6.3-.82,2.39-1.63,4.94-2.41,7.65-.78,2.67-1.63,5.33-2.53,8-.9,2.63-1.94,5.12-3.12,7.47-1.14,2.31-2.47,4.28-4,5.88-.9.98-1.51,1.47-1.82,1.47-.24,0-.35-.12-.35-.35,0-1.18.55-2.75,1.65-4.71,1.14-2,2.71-4.22,4.71-6.65s4.31-4.94,6.94-7.53c2.67-2.63,5.51-5.18,8.53-7.65,3.06-2.47,6.2-4.71,9.41-6.71,3.22-2.04,6.41-3.71,9.59-5,3.18-1.29,6.2-2.06,9.06-2.29,4.43-.47,7.71-.88,9.83-1.24,2.12-.35,3.18-.92,3.18-1.71,0-.2-.2-.39-.59-.59-.35-.2-.92-.29-1.71-.29-2.75,0-5.53.65-8.36,1.94-2.79,1.29-5.55,3-8.3,5.12-2.71,2.08-5.32,4.31-7.83,6.71-2.51,2.39-4.88,4.71-7.12,6.94-2.12,2.28-4.2,4.71-6.24,7.3-2,2.55-3.81,5.16-5.41,7.83-1.57,2.63-2.82,5.2-3.77,7.71s-1.41,4.86-1.41,7.06c0,2.08.43,3.71,1.29,4.88.9,1.22,2.14,1.82,3.71,1.82s2.9-.49,4.12-1.47l.18.29c-1.22,1.1-2.67,1.65-4.35,1.65-1.92,0-3.53-.76-4.82-2.29-1.26-1.53-1.88-3.49-1.88-5.88,0-2.08.49-4.3,1.47-6.65.98-2.35,2.26-4.73,3.82-7.12,1.57-2.43,3.26-4.77,5.06-7,1.84-2.28,3.63-4.33,5.35-6.18,1.73-1.88,3.22-3.43,4.47-4.65,2-1.88,4.2-3.88,6.59-6,2.39-2.12,4.88-4.12,7.47-6,2.63-1.92,5.26-3.47,7.88-4.65,2.67-1.22,5.24-1.82,7.71-1.82,1.26,0,2.26.14,3,.41.78.24,1.18.53,1.18.88,0,.59-.47,1.08-1.41,1.47-.9.39-2.41.75-4.53,1.06-2.12.27-4.98.59-8.59.94ZM415.43,652.42c1.8-1.69,3.31-3,4.53-3.94,1.26-.98,2.47-1.78,3.65-2.41h3c-.98.27-2.12.75-3.41,1.41s-2.59,1.45-3.88,2.35c-1.26.9-2.43,1.88-3.53,2.94-2.08,2.2-3.98,4.65-5.71,7.36-1.73,2.67-3.41,5.43-5.06,8.3-1.65,2.82-3.39,5.61-5.24,8.36-1.84,2.71-3.92,5.2-6.24,7.47-2.86,2.79-6.26,4.88-10.18,6.3-3.88,1.41-8.16,2.12-12.83,2.12-3.81,0-7.28-.61-10.41-1.82-3.1-1.18-5.59-2.98-7.47-5.41-1.84-2.43-2.77-5.49-2.77-9.18,0-2.55.61-4.9,1.82-7.06,1.22-2.16,2.9-4.04,5.06-5.65,2.16-1.65,4.71-2.92,7.65-3.82,2.98-.9,6.24-1.35,9.77-1.35,5.61,0,10.43.9,14.47,2.71,4.08,1.77,7.22,4.28,9.41,7.53,2.24,3.26,3.35,7.12,3.35,11.59,0,3.37-.78,6.47-2.35,9.3-1.57,2.86-3.81,5.33-6.71,7.41-2.86,2.08-6.24,3.69-10.12,4.82-3.88,1.14-8.18,1.71-12.89,1.71s-8.92-.71-12.89-2.12c-3.92-1.37-7.37-3.31-10.36-5.83-2.94-2.47-5.24-5.35-6.88-8.65-1.65-3.3-2.47-6.88-2.47-10.77s.88-7.3,2.65-10.59c1.77-3.33,4.22-6.26,7.36-8.77,3.14-2.51,6.77-4.47,10.89-5.88,4.12-1.41,8.53-2.12,13.24-2.12s8.61.69,12.06,2.06c3.49,1.37,6.22,3.26,8.18,5.65s2.94,5.2,2.94,8.41c0,2.47-.59,4.77-1.77,6.88s-2.82,3.98-4.94,5.59c-2.08,1.61-4.51,2.86-7.3,3.77-2.79.9-5.79,1.35-9,1.35-3.53,0-6.32-.57-8.36-1.71-2-1.14-3-2.67-3-4.59,0-1.65.55-3.08,1.65-4.3,1.14-1.26,2.69-2.22,4.65-2.88,2-.71,4.31-1.06,6.94-1.06,3.33,0,6.02.78,8.06,2.35l-.29.35c-1.92-1.49-4.51-2.24-7.77-2.24-2.51,0-4.73.33-6.65,1-1.92.63-3.43,1.53-4.53,2.71-1.06,1.18-1.59,2.53-1.59,4.06,0,1.8.96,3.24,2.88,4.3,1.96,1.02,4.63,1.53,8,1.53,3.18,0,6.12-.43,8.83-1.29,2.75-.86,5.14-2.08,7.18-3.65,2.04-1.57,3.63-3.39,4.77-5.47,1.18-2.08,1.77-4.31,1.77-6.71,0-3.1-.96-5.83-2.88-8.18-1.88-2.35-4.53-4.18-7.94-5.47-3.41-1.33-7.37-2-11.89-2s-9,.71-13.12,2.12c-4.08,1.37-7.65,3.3-10.71,5.77-3.06,2.43-5.47,5.28-7.24,8.53-1.73,3.26-2.59,6.75-2.59,10.47s.8,7.34,2.41,10.59c1.65,3.26,3.92,6.1,6.83,8.53,2.94,2.47,6.35,4.37,10.24,5.71,3.92,1.37,8.14,2.06,12.65,2.06s8.87-.57,12.71-1.71c3.88-1.1,7.22-2.67,10-4.71,2.82-2,5-4.39,6.53-7.18,1.57-2.79,2.35-5.84,2.35-9.18,0-4.39-1.1-8.18-3.3-11.36-2.16-3.22-5.24-5.69-9.24-7.41-4-1.73-8.75-2.59-14.24-2.59-3.45,0-6.63.45-9.53,1.35-2.9.86-5.43,2.1-7.59,3.71-2.16,1.57-3.82,3.41-5,5.53-1.14,2.12-1.71,4.39-1.71,6.83,0,2.98.82,5.49,2.47,7.53,1.65,2,3.9,3.49,6.77,4.47,2.9,1.02,6.2,1.53,9.89,1.53s7.08-.69,10.3-2.06,6.22-3.2,9-5.47c2.79-2.28,5.39-4.79,7.83-7.53,2.47-2.75,4.79-5.51,6.94-8.3,2.2-2.82,4.28-5.47,6.24-7.94s3.84-4.49,5.65-6.06ZM428.36,688.6c-1.14,0-1.71-.86-1.71-2.59,0-1.18.35-2.39,1.06-3.65.67-1.29,1.57-2.55,2.71-3.77,1.18-1.22,2.47-2.31,3.88-3.3,1.45-1.02,2.92-1.8,4.41-2.35,1.53-.59,2.98-.88,4.35-.88,1.18,0,1.77.43,1.77,1.29s-.53,1.88-1.59,3.18c-1.06,1.26-2.39,2.73-4,4.41-1.26,1.29-2.59,2.53-4,3.71-1.37,1.18-2.67,2.14-3.88,2.88-1.22.71-2.22,1.06-3,1.06ZM428.42,688.25c.67,0,1.55-.31,2.65-.94,1.1-.67,2.33-1.57,3.71-2.71,1.37-1.14,2.77-2.45,4.18-3.94,1.61-1.65,2.9-3.08,3.88-4.3,1.02-1.22,1.53-2.2,1.53-2.94,0-.55-.37-.82-1.12-.82-.71,0-1.59.27-2.65.82-1.02.51-2.12,1.22-3.3,2.12s-2.35,1.9-3.53,3c-1.14,1.1-2.18,2.22-3.12,3.35-.94,1.1-1.71,2.14-2.29,3.12-.59.98-.88,1.78-.88,2.41,0,.55.31.82.94.82ZM449.19,679.6l-.47.53c-1.41,1.61-2.84,3.08-4.3,4.41-1.45,1.29-2.79,2.31-4,3.06-1.22.75-2.18,1.12-2.88,1.12-.35,0-.69-.16-1-.47-.27-.27-.41-.63-.41-1.06,0-1.18.63-2.73,1.88-4.65,1.26-1.96,3-4.1,5.24-6.41h.29l3.06-3.35h3.94c-.59.35-1.22.78-1.88,1.29s-1.29,1.06-1.88,1.65c-2.51,2.51-4.49,4.53-5.94,6.06-1.45,1.49-2.49,2.67-3.12,3.53-.59.82-.88,1.51-.88,2.06,0,.67.27,1,.82,1,.63,0,1.47-.33,2.53-1,1.1-.71,2.33-1.67,3.71-2.88,1.37-1.26,2.77-2.65,4.18-4.18l.59-.71h.53ZM386.07,731.15c-3.57,0-6.65-.51-9.24-1.53-2.59-.98-4.59-2.37-6-4.18-1.41-1.77-2.12-3.82-2.12-6.18s.71-4.14,2.12-5.59,3.24-2.18,5.47-2.18l.06.35c-2.12,0-3.86.69-5.24,2.06-1.37,1.37-2.06,3.16-2.06,5.35s.65,4.08,1.94,5.77c1.26,1.69,3.02,2.98,5.3,3.88,2.24.94,4.82,1.41,7.77,1.41,4.71,0,9.39-.94,14.06-2.82,4.67-1.84,9.26-4.39,13.77-7.65,4.47-3.22,8.83-6.94,13.06-11.18,4.24-4.24,8.3-8.75,12.18-13.53,3.84-4.79,7.47-9.63,10.89-14.53,2.2-3.26,4.24-6.16,6.12-8.71,1.92-2.59,3.77-4.96,5.53-7.12,2.16-2.63,4.43-5.16,6.83-7.59,2.39-2.47,4.77-4.77,7.12-6.88,2.39-2.12,4.69-3.96,6.88-5.53,2.2-1.61,4.16-2.84,5.88-3.71,1.77-.9,3.2-1.35,4.3-1.35s1.59.57,1.59,1.71c0,.98-.43,2.14-1.29,3.47-.82,1.33-2.04,2.75-3.65,4.24-1.22,1.18-2.75,2.53-4.59,4.06-1.84,1.49-3.84,3.08-6,4.77-2.16,1.65-4.35,3.3-6.59,4.94-2.2,1.61-4.3,3.12-6.3,4.53-2,1.41-3.79,2.61-5.35,3.59-1.53.94-2.71,1.57-3.53,1.88l-.12-.29c1.41-.71,3.1-1.71,5.06-3,2-1.33,4.14-2.84,6.41-4.53,2.31-1.73,4.63-3.53,6.94-5.41,2.35-1.92,4.61-3.81,6.77-5.65,2.2-1.88,4.14-3.67,5.83-5.35,1.73-1.69,3.1-3.12,4.12-4.3.39-.43.75-1.02,1.06-1.77.31-.75.47-1.29.47-1.65,0-.55-.33-.82-1-.82-1.02,0-2.43.51-4.24,1.53-1.77.98-3.77,2.33-6,4.06-2.2,1.73-4.51,3.73-6.94,6-2.39,2.24-4.75,4.63-7.06,7.18-2.31,2.51-4.43,5.04-6.35,7.59-3.77,4.94-6.63,8.73-8.59,11.36-1.96,2.59-3.24,4.37-3.82,5.35-4.47,6.75-9.04,13.02-13.71,18.83-4.71,5.84-9.57,10.94-14.59,15.3-5.02,4.35-10.28,7.75-15.77,10.18-5.49,2.43-11.28,3.65-17.36,3.65ZM448.26,686.43c-1.22,0-2.18-.39-2.88-1.18l.18-.24c.75.67,1.63,1,2.65,1,1.37,0,2.84-.51,4.41-1.53,1.61-1.02,3.22-2.43,4.82-4.24l.53-.65h.53l-.53.65c-1.92,2.12-3.67,3.69-5.24,4.71-1.57.98-3.06,1.47-4.47,1.47ZM458.51,688.37c1.1,0,2.39-.35,3.88-1.06,1.53-.71,3.08-1.67,4.65-2.88,1.61-1.22,3.1-2.59,4.47-4.12l.59-.71h.53l-.47.53c-1.41,1.61-2.96,3.08-4.65,4.41-1.69,1.29-3.33,2.31-4.94,3.06-1.57.75-2.92,1.12-4.06,1.12-.9,0-1.61-.31-2.12-.94-.55-.63-.82-1.49-.82-2.59s.33-2.24,1-3.41c.63-1.22,1.47-2.39,2.53-3.53,1.1-1.14,2.31-2.16,3.65-3.06,1.33-.94,2.71-1.67,4.12-2.18,1.41-.55,2.77-.82,4.06-.82.59,0,1.06.12,1.41.35.35.24.53.53.53.88,0,.71-.41,1.45-1.24,2.24-.78.78-1.8,1.53-3.06,2.24-1.26.67-2.61,1.24-4.06,1.71-1.41.43-2.77.65-4.06.65l.41-.47c1.22-.08,2.49-.31,3.82-.71,1.33-.43,2.55-.96,3.65-1.59,1.14-.67,2.06-1.35,2.77-2.06.71-.71,1.06-1.37,1.06-2,0-.51-.35-.76-1.06-.76-.82,0-1.84.35-3.06,1.06-1.18.71-2.41,1.63-3.71,2.77-1.29,1.1-2.51,2.31-3.65,3.65-1.14,1.29-2.04,2.55-2.71,3.77-.71,1.22-1.06,2.24-1.06,3.06,0,.94.53,1.41,1.59,1.41ZM472.65,679.6h-.53l.59-.65c3.14-3.45,5.67-6.28,7.59-8.47,1.92-2.24,3.2-3.79,3.82-4.65h2.18c-1.33,1.02-3.02,2.55-5.06,4.59-2,2-4.65,4.82-7.94,8.47l-.65.71ZM473.94,688.37c.75,0,1.75-.37,3-1.12,1.26-.75,2.61-1.73,4.06-2.94,1.45-1.26,2.82-2.59,4.12-4l.65-.71h.47l-.41.53c-1.41,1.61-2.9,3.06-4.47,4.35-1.53,1.29-2.96,2.33-4.3,3.12-1.29.75-2.35,1.12-3.18,1.12-.43,0-.86-.16-1.29-.47-.43-.27-.65-.75-.65-1.41,0-.86.33-1.78,1-2.77s1.51-1.98,2.53-3c1.06-1.02,2.1-2,3.12-2.94,1.02-.94,1.86-1.8,2.53-2.59.67-.82,1-1.53,1-2.12s-.37-.88-1.12-.88c-.31,0-.71.06-1.18.18-.43.08-.92.24-1.47.47l.41-.53c.43-.2.86-.35,1.29-.47.43-.16.88-.24,1.35-.24.86,0,1.55.18,2.06.53.55.35.82.92.82,1.71,0,.94-.39,1.9-1.18,2.88-.75.94-1.71,1.86-2.88,2.77-1.14.9-2.28,1.8-3.41,2.71-1.14.86-2.1,1.71-2.88,2.53-.75.78-1.12,1.55-1.12,2.29,0,.67.37,1,1.12,1Z"/>
    <image width="888" height="900" transform="translate(87.7 598) scale(.07)" xlink:href="C:\Users\leoal\Downloads\pngwing.com.png"/>
  </g>
</svg>