<?xml version="1.0" encoding="UTF-8"?>
<svg id="Camada_2" data-name="Camada 2" xmlns="http://www.w3.org/2000/svg" xmlns:xlink="http://www.w3.org/1999/xlink" viewBox="0 0 276 386">
  <defs>
    <style>
      .cls-1 {
        letter-spacing: 0em;
      }

      .cls-2 {
        letter-spacing: 0em;
      }

      .cls-3 {
        stroke-miterlimit: 10;
      }

      .cls-3, .cls-4 {
        stroke-width: 1.5px;
      }

      .cls-3, .cls-4, .cls-5 {
        fill: none;
        stroke: #3c3c3b;
      }

      .cls-6, .cls-7, .cls-8 {
        stroke-width: 0px;
      }

      .cls-6, .cls-9 {
        fill: #3c3c3b;
      }

      .cls-4, .cls-5 {
        stroke-linejoin: round;
      }

      .cls-5 {
        stroke-width: 1.35px;
      }

      .cls-10 {
        isolation: isolate;
      }

      .cls-11 {
        fill: #3c3c3b;
        font-family: Poppins-Light, Poppins;
        font-size: 12px;
        font-weight: 300;
      }

      .cls-7 {
        fill: #ab5fa9;
      }

      .cls-12 {
        letter-spacing: -.03em;
      }

      .cls-13 {
        fill: #36a9c2;
      }

      .cls-13, .cls-9 {
        font-family: Metropolis-Medium, 'Metropolis Medium';
        font-size: 8.72px;
        font-weight: 500;
      }

      .cls-14 {
        letter-spacing: 0em;
      }

      .cls-15 {
        letter-spacing: 0em;
      }

      .cls-8 {
        fill: #fff;
        filter: url(#drop-shadow-1);
      }
    </style>
    <filter id="drop-shadow-1" filterUnits="userSpaceOnUse">
      <feOffset dx="5" dy="5"/>
      <feGaussianBlur result="blur" stdDeviation="3"/>
      <feFlood flood-color="#000" flood-opacity=".3"/>
      <feComposite in2="blur" operator="in"/>
      <feComposite in="SourceGraphic"/>
    </filter>
  </defs>
  <g id="Elements">
    <path class="cls-8" d="M4.32,4.29v367.49h257.36V4.29H4.32ZM247.79,280.42H18.21V50.84h229.59v229.59Z"/>
    <circle class="cls-4" cx="35.57" cy="29.38" r="11.28" transform="translate(-8.5 15.72) rotate(-22.34)"/>
    <text class="cls-9" transform="translate(41.5 326.46)"><tspan x="0" y="0">362 likes</tspan></text>
    <text class="cls-9" transform="translate(28.44 343.96)"><tspan x="0" y="0">ani</tspan><tspan class="cls-1" x="11.08" y="0">v</tspan><tspan class="cls-2" x="15.19" y="0">ersá</tspan><tspan class="cls-14" x="30.07" y="0">r</tspan><tspan x="32.96" y="0">io</tspan></text>
    <text class="cls-13" transform="translate(95.94 343.96)"><tspan x="0" y="0">#15anos</tspan></text>
    <text class="cls-13" transform="translate(142.67 343.96)"><tspan x="0" y="0">#</tspan><tspan class="cls-15" x="4.33" y="0">M</tspan><tspan x="11.4" y="0">a</tspan><tspan class="cls-12" x="15.6" y="0">F</tspan><tspan x="19.58" y="0">er</tspan></text>
    <g>
      <path class="cls-6" d="M236.51,28.84c0,.66-.54,1.2-1.2,1.2s-1.2-.54-1.2-1.2.54-1.2,1.2-1.2,1.2.54,1.2,1.2Z"/>
      <path class="cls-6" d="M240.14,28.84c0,.66-.54,1.2-1.2,1.2s-1.2-.54-1.2-1.2.54-1.2,1.2-1.2,1.2.54,1.2,1.2Z"/>
      <path class="cls-6" d="M243.78,28.84c0,.66-.54,1.2-1.2,1.2s-1.2-.54-1.2-1.2.54-1.2,1.2-1.2,1.2.54,1.2,1.2Z"/>
    </g>
    <path class="cls-4" d="M33.06,307.02l6.59-5.33c.73-.59,1.31-1.37,1.6-2.3,1.21-3.8-2.23-7.86-6.31-6.26-1.1.43-1.89,1.87-1.89,1.87,0,0-.79-1.44-1.89-1.87-4.07-1.59-7.52,2.47-6.31,6.26.29.92.88,1.71,1.6,2.3l6.59,5.33Z"/>
    <path class="cls-6" d="M33.06,327.66l4-3.24c.44-.36.8-.83.97-1.4.73-2.3-1.36-4.77-3.83-3.8-.67.26-1.15,1.14-1.15,1.14,0,0-.48-.88-1.15-1.14-2.47-.97-4.56,1.5-3.83,3.8.18.56.53,1.04.97,1.4l4,3.24Z"/>
    <path class="cls-3" d="M69.81,302.51c.75-1.49,1.03-3.26.6-5.12-.66-2.81-2.98-5.04-5.82-5.57-5.22-.98-9.71,3.49-8.78,8.71.53,2.94,2.87,5.32,5.79,5.92,1.57.32,3.07.14,4.38-.4.32-.13.67-.17,1-.06l2.22.68c.51.16,1.01-.29.91-.81l-.45-2.4c-.06-.32,0-.65.15-.94Z"/>
    <path class="cls-4" d="M240.7,305.06l-4.76-4.08-4.76,4.08c-.34.29-.86.05-.86-.4v-11.42c0-.47.38-.85.85-.85h9.53c.47,0,.85.38.85.85v11.42c0,.44-.52.68-.86.4Z"/>
    <g>
      <polygon class="cls-5" points="84.83 292.51 102.42 292.51 91.18 307.52 91.17 297.94 84.83 292.51"/>
      <line class="cls-5" x1="91.17" y1="297.94" x2="102.42" y2="292.51"/>
    </g>
    <text class="cls-11" transform="translate(56.45 35.59)"><tspan x="0" y="0">ie.mafer</tspan></text>
    <g id="Elements-2" data-name="Elements">
      <image class="cls-10" width="122" height="122" transform="translate(122 179) scale(.18)" xlink:href="C:\Users\leoal\Downloads\Ellipse 79.png"/>
    </g>
    <path class="cls-7" d="M191.22,24.19c-1.25,0-2.26-.19-3.04-.58-.78-.4-1.36-.91-1.74-1.53-.37-.62-.55-1.27-.55-1.94s.17-1.29.52-1.91c.34-.63.84-1.2,1.5-1.7.67-.52,1.48-.92,2.44-1.22.96-.31,2.06-.46,3.3-.46.72,0,1.43.1,2.12.31.69.19,1.36.45,2.01.77.65.31,1.27.64,1.86,1,.6.34,1.15.67,1.65.98.5.31.95.56,1.34.76.4.19.73.29,1,.29v.15c-.32,0-.73-.13-1.24-.4-.49-.28-1.06-.61-1.7-1-.63-.4-1.32-.8-2.06-1.19-.75-.39-1.53-.72-2.34-.98-.8-.28-1.63-.41-2.48-.41-1.09,0-2.1.13-3.04.4-.93.25-1.74.61-2.44,1.08-.7.47-1.24,1.02-1.63,1.65-.39.63-.58,1.31-.58,2.03s.21,1.42.64,2c.42.56,1.02,1,1.79,1.32.78.31,1.69.46,2.72.46.85,0,1.62-.15,2.32-.45.7-.31,1.26-.72,1.67-1.24s.62-1.08.62-1.7c0-.45-.11-.84-.33-1.17-.21-.33-.5-.58-.89-.74l.09-.1c.4.18.72.45.95.79s.34.75.34,1.22c0,.64-.21,1.23-.64,1.77-.42.53-1,.95-1.72,1.27-.72.31-1.53.46-2.43.46ZM212.66,19.19c-.81.07-1.67.29-2.58.65-.89.37-1.81.84-2.73,1.41-.92.57-1.81,1.21-2.68,1.91-.87.7-1.69,1.42-2.44,2.15s-1.42,1.44-2,2.13c-.57.68-1.02,1.29-1.34,1.84-.32.54-.48.96-.48,1.27,0,.03.01.05.03.05.05,0,.13-.08.24-.24.13-.16.25-.34.38-.55.14-.21.25-.38.34-.52.37-.57.65-1.19.84-1.86.19-.68.36-1.38.5-2.1.15-.73.33-1.47.55-2.2.22-.75.52-1.47.91-2.17.39-.7.93-1.35,1.63-1.96l.17.07c-.38.25-.71.64-1,1.17-.28.52-.53,1.13-.77,1.84-.24.7-.48,1.44-.71,2.24-.23.78-.48,1.56-.74,2.34-.26.77-.57,1.5-.91,2.18-.33.68-.72,1.25-1.17,1.72-.26.29-.44.43-.53.43-.07,0-.1-.03-.1-.1,0-.34.16-.8.48-1.38.33-.58.79-1.23,1.38-1.94s1.26-1.44,2.03-2.2c.78-.77,1.61-1.51,2.49-2.24.89-.72,1.81-1.38,2.75-1.96.94-.6,1.87-1.08,2.8-1.46.93-.38,1.81-.6,2.65-.67,1.3-.14,2.25-.26,2.87-.36.62-.1.93-.27.93-.5,0-.06-.06-.11-.17-.17-.1-.06-.27-.09-.5-.09-.8,0-1.62.19-2.44.57-.81.38-1.62.88-2.43,1.5-.79.61-1.55,1.26-2.29,1.96-.73.7-1.43,1.38-2.08,2.03-.62.67-1.23,1.38-1.82,2.13-.58.75-1.11,1.51-1.58,2.29-.46.77-.83,1.52-1.1,2.25s-.41,1.42-.41,2.06c0,.61.13,1.08.38,1.43.26.36.62.53,1.08.53s.85-.14,1.2-.43l.05.09c-.36.32-.78.48-1.27.48-.56,0-1.03-.22-1.41-.67-.37-.45-.55-1.02-.55-1.72,0-.61.14-1.26.43-1.94.29-.69.66-1.38,1.12-2.08.46-.71.95-1.39,1.48-2.05.54-.67,1.06-1.27,1.57-1.81.5-.55.94-1,1.31-1.36.58-.55,1.23-1.14,1.93-1.75.7-.62,1.43-1.2,2.18-1.75.77-.56,1.54-1.01,2.3-1.36.78-.36,1.53-.53,2.25-.53.37,0,.66.04.88.12.23.07.34.15.34.26,0,.17-.14.32-.41.43-.26.11-.71.22-1.32.31-.62.08-1.46.17-2.51.28ZM201.2,20.81c.53-.49.97-.88,1.32-1.15.37-.29.72-.52,1.07-.71h.88c-.29.08-.62.22-1,.41s-.76.42-1.14.69c-.37.26-.71.55-1.03.86-.61.64-1.16,1.36-1.67,2.15-.5.78-1,1.59-1.48,2.43-.48.83-.99,1.64-1.53,2.44-.54.79-1.15,1.52-1.82,2.18-.84.81-1.83,1.43-2.98,1.84-1.14.41-2.39.62-3.75.62-1.11,0-2.13-.18-3.04-.53-.91-.34-1.63-.87-2.18-1.58-.54-.71-.81-1.61-.81-2.68,0-.75.18-1.43.53-2.06.36-.63.85-1.18,1.48-1.65.63-.48,1.38-.85,2.24-1.12.87-.26,1.82-.4,2.86-.4,1.64,0,3.05.26,4.23.79,1.19.52,2.11,1.25,2.75,2.2.65.95.98,2.08.98,3.39,0,.99-.23,1.89-.69,2.72-.46.84-1.11,1.56-1.96,2.17-.84.61-1.82,1.08-2.96,1.41-1.14.33-2.39.5-3.77.5s-2.61-.21-3.77-.62c-1.15-.4-2.16-.97-3.03-1.7-.86-.72-1.53-1.57-2.01-2.53-.48-.96-.72-2.01-.72-3.15s.26-2.13.77-3.1c.52-.97,1.23-1.83,2.15-2.56.92-.73,1.98-1.31,3.18-1.72,1.2-.41,2.49-.62,3.87-.62s2.52.2,3.53.6c1.02.4,1.82.95,2.39,1.65s.86,1.52.86,2.46c0,.72-.17,1.39-.52,2.01s-.83,1.16-1.44,1.63c-.61.47-1.32.84-2.13,1.1-.81.26-1.69.4-2.63.4-1.03,0-1.85-.17-2.44-.5-.58-.33-.88-.78-.88-1.34,0-.48.16-.9.48-1.26.33-.37.79-.65,1.36-.84.58-.21,1.26-.31,2.03-.31.97,0,1.76.23,2.36.69l-.09.1c-.56-.44-1.32-.65-2.27-.65-.73,0-1.38.1-1.94.29-.56.18-1,.45-1.32.79-.31.34-.46.74-.46,1.19,0,.53.28.95.84,1.26.57.3,1.35.45,2.34.45.93,0,1.79-.13,2.58-.38.8-.25,1.5-.61,2.1-1.07.6-.46,1.06-.99,1.39-1.6.34-.61.52-1.26.52-1.96,0-.91-.28-1.7-.84-2.39-.55-.69-1.32-1.22-2.32-1.6-1-.39-2.16-.58-3.47-.58s-2.63.21-3.84.62c-1.19.4-2.24.96-3.13,1.69-.89.71-1.6,1.54-2.12,2.49-.5.95-.76,1.97-.76,3.06s.24,2.14.71,3.1c.48.95,1.15,1.78,2,2.49.86.72,1.86,1.28,2.99,1.67,1.15.4,2.38.6,3.7.6s2.59-.17,3.72-.5c1.14-.32,2.11-.78,2.92-1.38.83-.58,1.46-1.28,1.91-2.1.46-.81.69-1.71.69-2.68,0-1.28-.32-2.39-.96-3.32-.63-.94-1.53-1.66-2.7-2.17-1.17-.5-2.56-.76-4.16-.76-1.01,0-1.94.13-2.79.4-.85.25-1.59.61-2.22,1.08-.63.46-1.12,1-1.46,1.62-.33.62-.5,1.28-.5,2,0,.87.24,1.61.72,2.2.48.58,1.14,1.02,1.98,1.31.85.3,1.81.45,2.89.45s2.07-.2,3.01-.6,1.82-.93,2.63-1.6c.81-.67,1.58-1.4,2.29-2.2.72-.8,1.4-1.61,2.03-2.43.64-.83,1.25-1.6,1.82-2.32s1.12-1.31,1.65-1.77ZM204.98,31.38c-.33,0-.5-.25-.5-.76,0-.34.1-.7.31-1.07.19-.38.46-.75.79-1.1.34-.36.72-.68,1.14-.96.42-.3.85-.53,1.29-.69.45-.17.87-.26,1.27-.26.34,0,.52.13.52.38s-.15.55-.46.93c-.31.37-.7.8-1.17,1.29-.37.38-.76.74-1.17,1.08-.4.34-.78.62-1.14.84-.36.21-.65.31-.88.31ZM205,31.28c.19,0,.45-.09.77-.28.32-.19.68-.46,1.08-.79.4-.33.81-.72,1.22-1.15.47-.48.85-.9,1.14-1.26.3-.36.45-.64.45-.86,0-.16-.11-.24-.33-.24-.21,0-.46.08-.77.24-.3.15-.62.36-.96.62s-.69.56-1.03.88c-.33.32-.64.65-.91.98-.28.32-.5.62-.67.91-.17.29-.26.52-.26.71,0,.16.09.24.28.24ZM211.07,28.75l-.14.15c-.41.47-.83.9-1.26,1.29-.42.38-.81.68-1.17.89-.36.22-.64.33-.84.33-.1,0-.2-.05-.29-.14-.08-.08-.12-.18-.12-.31,0-.34.18-.8.55-1.36.37-.57.88-1.2,1.53-1.87h.09l.89-.98h1.15c-.17.1-.36.23-.55.38s-.38.31-.55.48c-.73.73-1.31,1.32-1.74,1.77-.42.44-.73.78-.91,1.03-.17.24-.26.44-.26.6,0,.19.08.29.24.29.18,0,.43-.1.74-.29.32-.21.68-.49,1.08-.84.4-.37.81-.77,1.22-1.22l.17-.21h.15ZM192.62,43.82c-1.04,0-1.94-.15-2.7-.45-.76-.29-1.34-.69-1.75-1.22-.41-.52-.62-1.12-.62-1.81s.21-1.21.62-1.63.95-.64,1.6-.64l.02.1c-.62,0-1.13.2-1.53.6-.4.4-.6.92-.6,1.57s.19,1.19.57,1.69c.37.49.88.87,1.55,1.14.65.28,1.41.41,2.27.41,1.38,0,2.75-.28,4.11-.83,1.36-.54,2.71-1.28,4.03-2.24,1.31-.94,2.58-2.03,3.82-3.27,1.24-1.24,2.43-2.56,3.56-3.96,1.12-1.4,2.18-2.82,3.18-4.25.64-.95,1.24-1.8,1.79-2.55.56-.76,1.1-1.45,1.62-2.08.63-.77,1.3-1.51,2-2.22.7-.72,1.39-1.39,2.08-2.01.7-.62,1.37-1.16,2.01-1.62.64-.47,1.22-.83,1.72-1.08.52-.26.93-.4,1.26-.4s.46.17.46.5c0,.29-.13.62-.38,1.01-.24.39-.6.8-1.07,1.24-.36.34-.8.74-1.34,1.19-.54.44-1.12.9-1.75,1.39-.63.48-1.27.96-1.93,1.44-.64.47-1.26.91-1.84,1.32-.58.41-1.11.76-1.57,1.05-.45.28-.79.46-1.03.55l-.03-.09c.41-.21.91-.5,1.48-.88.58-.39,1.21-.83,1.87-1.32.68-.5,1.35-1.03,2.03-1.58.69-.56,1.35-1.11,1.98-1.65.64-.55,1.21-1.07,1.7-1.57.5-.49.91-.91,1.2-1.26.11-.13.22-.3.31-.52.09-.22.14-.38.14-.48,0-.16-.1-.24-.29-.24-.3,0-.71.15-1.24.45-.52.29-1.1.68-1.75,1.19-.64.5-1.32,1.09-2.03,1.75-.7.65-1.39,1.35-2.06,2.1-.68.73-1.3,1.47-1.86,2.22-1.1,1.44-1.94,2.55-2.51,3.32-.57.76-.95,1.28-1.12,1.57-1.31,1.97-2.64,3.81-4.01,5.5-1.38,1.71-2.8,3.2-4.27,4.47-1.47,1.27-3,2.26-4.61,2.98s-3.3,1.07-5.07,1.07ZM210.8,30.75c-.36,0-.64-.11-.84-.34l.05-.07c.22.19.48.29.77.29.4,0,.83-.15,1.29-.45.47-.3.94-.71,1.41-1.24l.15-.19h.15l-.15.19c-.56.62-1.07,1.08-1.53,1.38-.46.29-.89.43-1.31.43ZM213.79,31.31c.32,0,.7-.1,1.14-.31.45-.21.9-.49,1.36-.84.47-.36.91-.76,1.31-1.2l.17-.21h.15l-.14.15c-.41.47-.87.9-1.36,1.29-.49.38-.97.68-1.44.89-.46.22-.85.33-1.19.33-.26,0-.47-.09-.62-.28-.16-.18-.24-.44-.24-.76s.1-.65.29-1c.18-.36.43-.7.74-1.03.32-.33.68-.63,1.07-.89.39-.28.79-.49,1.2-.64.41-.16.81-.24,1.19-.24.17,0,.31.03.41.1.1.07.15.15.15.26,0,.21-.12.42-.36.65-.23.23-.53.45-.89.65-.37.19-.76.36-1.19.5-.41.13-.81.19-1.19.19l.12-.14c.36-.02.73-.09,1.12-.21.39-.13.75-.28,1.07-.46.33-.19.6-.4.81-.6.21-.21.31-.4.31-.58,0-.15-.1-.22-.31-.22-.24,0-.54.1-.89.31-.34.21-.71.48-1.08.81-.38.32-.73.68-1.07,1.07-.33.38-.6.75-.79,1.1-.21.36-.31.65-.31.89,0,.28.15.41.46.41ZM217.93,28.75h-.15l.17-.19c.92-1.01,1.66-1.83,2.22-2.48.56-.65.93-1.11,1.12-1.36h.64c-.39.3-.88.75-1.48,1.34-.58.58-1.36,1.41-2.32,2.48l-.19.21ZM218.3,31.31c.22,0,.51-.11.88-.33.37-.22.76-.5,1.19-.86.42-.37.83-.76,1.2-1.17l.19-.21h.14l-.12.15c-.41.47-.85.89-1.31,1.27-.45.38-.87.68-1.26.91-.38.22-.69.33-.93.33-.13,0-.25-.05-.38-.14-.13-.08-.19-.22-.19-.41,0-.25.1-.52.29-.81s.44-.58.74-.88c.31-.3.61-.58.91-.86.3-.28.54-.53.74-.76.19-.24.29-.45.29-.62s-.11-.26-.33-.26c-.09,0-.21.02-.34.05-.13.02-.27.07-.43.14l.12-.15c.13-.06.25-.1.38-.14.13-.05.26-.07.4-.07.25,0,.45.05.6.15.16.1.24.27.24.5,0,.28-.11.56-.34.84-.22.28-.5.54-.84.81-.33.26-.67.53-1,.79-.33.25-.61.5-.84.74-.22.23-.33.45-.33.67,0,.19.11.29.33.29Z"/>
  </g>
</svg>